<svg width="161" height="109" viewBox="0 0 161 109" fill="none" xmlns="http://www.w3.org/2000/svg">
<path d="M71.4375 25.9453C73.9219 25.9453 76.0156 26.1328 77.7188 26.5078C79.4219 26.8828 80.7969 27.4141 81.8438 28.1016C82.8906 28.7891 83.6406 29.625 84.0938 30.6094C84.5469 31.5781 84.7734 32.6562 84.7734 33.8438C84.7734 34.875 84.6094 35.8516 84.2812 36.7734C83.9688 37.6953 83.4922 38.5312 82.8516 39.2812C82.2109 40.0312 81.4062 40.6797 80.4375 41.2266C79.4844 41.7578 78.3594 42.1641 77.0625 42.4453V42.5391C78.1406 42.7891 79.0234 43.1562 79.7109 43.6406C80.4141 44.125 80.9766 44.7188 81.3984 45.4219C81.8359 46.125 82.1719 46.9297 82.4062 47.8359C82.6562 48.7266 82.875 49.7109 83.0625 50.7891C83.25 51.8984 83.4141 52.9141 83.5547 53.8359C83.7109 54.7422 83.9141 55.5312 84.1641 56.2031C84.4141 56.8594 84.75 57.375 85.1719 57.75C85.6094 58.1094 86.2109 58.2891 86.9766 58.2891C87.1172 58.2891 87.3125 58.2812 87.5625 58.2656C87.8281 58.25 88.1172 58.2188 88.4297 58.1719V59.9766C88.1641 60.0391 87.875 60.0938 87.5625 60.1406C87.25 60.1875 86.9297 60.2188 86.6016 60.2344C86.2891 60.2656 85.9766 60.2812 85.6641 60.2812C85.3672 60.2969 85.1016 60.3047 84.8672 60.3047C83.5078 60.3047 82.4375 60.1641 81.6562 59.8828C80.8906 59.5859 80.2969 59.1328 79.875 58.5234C79.4688 57.9141 79.1797 57.1484 79.0078 56.2266C78.8359 55.3047 78.6719 54.2109 78.5156 52.9453C78.2812 51.1016 78.0469 49.5547 77.8125 48.3047C77.5781 47.0547 77.25 46.0547 76.8281 45.3047C76.4062 44.5391 75.8359 44 75.1172 43.6875C74.3984 43.3594 73.4219 43.1953 72.1875 43.1953H67.7812V58.125H72.7031V60H58.5234V58.125H63.2109V27.8203H58.5234V25.9453H71.4375ZM67.7812 41.3203H70.8984C72.5859 41.3203 73.9922 41.1797 75.1172 40.8984C76.2578 40.6172 77.1719 40.1797 77.8594 39.5859C78.5625 38.9766 79.0547 38.2109 79.3359 37.2891C79.6328 36.3516 79.7812 35.2266 79.7812 33.9141C79.7812 32.8203 79.6641 31.8906 79.4297 31.125C79.1953 30.3438 78.7578 29.7109 78.1172 29.2266C77.4922 28.7422 76.6172 28.3906 75.4922 28.1719C74.3828 27.9375 72.9375 27.8203 71.1562 27.8203H67.7812V41.3203Z" fill="white"/>
<path d="M68.232 32.632C68.232 32.248 68.92 31.912 70.296 31.624C71.64 31.304 72.696 31.144 73.464 31.144C74.2 31.144 74.856 31.752 75.432 32.968C76.04 34.28 76.664 35.832 77.304 37.624C77.976 39.416 78.296 40.312 78.264 40.312C79.32 38.104 80.568 36.36 82.008 35.08C83.448 33.8 85 33.16 86.664 33.16C87.816 33.16 88.84 33.704 89.736 34.792C90.664 35.88 91.416 37.24 91.992 38.872C93.08 42.008 93.944 46.584 94.584 52.6L95.256 60.664C95.32 60.664 95.8 58.76 96.696 54.952C97.624 51.144 98.392 48.056 99 45.688C100.504 39.8 101.4 36.664 101.688 36.28C101.816 35.992 102.456 35.656 103.608 35.272C104.76 34.888 105.592 34.696 106.104 34.696C106.232 34.696 106.296 34.872 106.296 35.224L106.248 35.896C106.216 36.344 106.2 37.08 106.2 38.104C106.2 39.096 106.232 40.2 106.296 41.416C106.36 42.6 106.504 44.168 106.728 46.12C106.984 48.072 107.304 49.928 107.688 51.688C108.104 53.448 108.68 55.272 109.416 57.16C110.184 59.016 111.064 60.632 112.056 62.008C113.08 63.352 114.36 64.472 115.896 65.368C117.432 66.232 119.144 66.664 121.032 66.664C121.96 66.664 122.616 66.584 123 66.424C123.384 66.264 123.688 66.12 123.912 65.992C124.168 65.864 124.328 65.784 124.392 65.752C124.648 65.752 124.776 65.912 124.776 66.232C124.776 66.776 123.816 67.4 121.896 68.104C119.976 68.84 118.36 69.208 117.048 69.208C113.848 69.208 111.064 67.736 108.696 64.792C106.36 61.816 104.648 58.104 103.56 53.656C102.472 49.176 101.928 44.312 101.928 39.064H101.688L95.496 63.88C95.336 65.896 95.144 67 94.92 67.192C93.512 68.152 92.6 68.632 92.184 68.632C91.8 68.632 91.592 68.248 91.56 67.48C91.464 64.12 91.128 60.344 90.552 56.152C90.008 51.96 89.448 48.568 88.872 45.976C88.296 43.384 87.528 41.176 86.568 39.352C85.608 37.496 84.6 36.568 83.544 36.568C82.52 36.568 81.576 37.016 80.712 37.912C79.88 38.808 79.224 40.056 78.744 41.656C79.256 44.152 79.864 48.056 80.568 53.368C81.272 58.648 81.624 62.936 81.624 66.232C81.624 67.16 81.336 67.88 80.76 68.392C80.184 68.936 79.624 69.208 79.08 69.208C78.536 69.208 77.992 68.6 77.448 67.384C76.904 66.2 76.44 64.456 76.056 62.152C75.704 59.848 75.528 57.816 75.528 56.056C75.528 54.296 75.592 52.328 75.72 50.152C75.08 45.608 74.104 41.592 72.792 38.104C72.344 36.824 71.768 35.704 71.064 34.744C70.328 33.752 69.592 33.224 68.856 33.16C68.44 33.096 68.232 32.92 68.232 32.632Z" fill="white"/>
<rect width="161" height="23" transform="translate(0 80)" fill="white"/>
<path d="M5.136 96.16C3.44 96.16 2.544 95.136 2.544 93.408V87.392C2.544 85.664 3.44 84.64 5.136 84.64C6.832 84.64 7.728 85.664 7.728 87.392V88.576H6.064V87.28C6.064 86.544 5.712 86.24 5.184 86.24C4.656 86.24 4.304 86.544 4.304 87.28V93.536C4.304 94.272 4.656 94.56 5.184 94.56C5.712 94.56 6.064 94.272 6.064 93.536V91.824H7.728V93.408C7.728 95.136 6.832 96.16 5.136 96.16ZM11.3563 96.16C9.62825 96.16 8.68425 95.136 8.68425 93.344V87.456C8.68425 85.664 9.62825 84.64 11.3563 84.64C13.0843 84.64 14.0283 85.664 14.0283 87.456V93.344C14.0283 95.136 13.0843 96.16 11.3563 96.16ZM11.3563 94.56C11.9163 94.56 12.2682 94.256 12.2682 93.456V87.344C12.2682 86.544 11.9163 86.24 11.3563 86.24C10.7963 86.24 10.4443 86.544 10.4443 87.344V93.456C10.4443 94.256 10.7963 94.56 11.3563 94.56ZM15.2185 96V84.8H17.4265L19.1385 91.504H19.1705V84.8H20.7385V96H18.9305L16.8185 87.824H16.7865V96H15.2185ZM24.3346 96.16C22.6066 96.16 21.7426 95.136 21.7426 93.344V92.704H23.4066V93.472C23.4066 94.272 23.7586 94.56 24.3186 94.56C24.8786 94.56 25.2306 94.272 25.2306 93.44C25.2306 92.512 24.8786 91.92 23.7266 90.912C22.2546 89.616 21.7746 88.704 21.7746 87.424C21.7746 85.664 22.6866 84.64 24.3986 84.64C26.1106 84.64 26.9586 85.664 26.9586 87.456V87.92H25.2946V87.344C25.2946 86.544 24.9746 86.24 24.4146 86.24C23.8546 86.24 23.5346 86.544 23.5346 87.312C23.5346 88.128 23.9026 88.72 25.0546 89.728C26.5266 91.024 26.9906 91.92 26.9906 93.312C26.9906 95.136 26.0626 96.16 24.3346 96.16ZM29.3758 96V86.4H27.5358V84.8H32.9758V86.4H31.1358V96H29.3758ZM33.8279 96V84.8H36.4359C38.2599 84.8 39.0439 85.648 39.0439 87.376V88.064C39.0439 89.216 38.6759 89.952 37.8919 90.272V90.304C38.7719 90.576 39.0599 91.408 39.0599 92.672V94.64C39.0599 95.184 39.0759 95.584 39.2519 96H37.4599C37.3639 95.712 37.2999 95.536 37.2999 94.624V92.576C37.2999 91.536 36.9959 91.2 36.1959 91.2H35.5879V96H33.8279ZM35.5879 89.6H36.2279C36.8839 89.6 37.2839 89.312 37.2839 88.416V87.552C37.2839 86.752 37.0119 86.4 36.3879 86.4H35.5879V89.6ZM42.841 96.16C41.113 96.16 40.217 95.136 40.217 93.344V84.8H41.977V93.472C41.977 94.272 42.313 94.56 42.873 94.56C43.433 94.56 43.769 94.272 43.769 93.472V84.8H45.465V93.344C45.465 95.136 44.569 96.16 42.841 96.16ZM51.7905 88.576H50.1265V87.28C50.1265 86.544 49.7745 86.24 49.2465 86.24C48.7185 86.24 48.3665 86.544 48.3665 87.28V93.536C48.3665 94.272 48.7185 94.56 49.2465 94.56C49.7745 94.56 50.1265 94.272 50.1265 93.536V91.824H51.7905V93.408C51.7905 94.992 51.0385 95.984 49.6145 96.144V96.624C50.3185 96.624 50.7185 96.816 50.7185 97.376C50.7185 98.24 50.0465 98.352 49.0865 98.352C48.2065 98.352 47.5505 98.16 47.5505 97.424V97.264H48.7345V97.392C48.7345 97.632 48.9105 97.712 49.0865 97.712C49.3745 97.712 49.5025 97.6 49.5025 97.328C49.5025 97.024 49.3105 96.912 48.9105 96.912H48.8305V96.144C47.3745 96 46.6065 95.008 46.6065 93.408V87.392C46.6065 85.664 47.5025 84.64 49.1985 84.64C50.8945 84.64 51.7905 85.664 51.7905 87.392V88.576ZM54.0428 84.112L53.1948 83.6C53.5948 82.704 54.0428 82.256 54.6508 82.256C55.0828 82.256 55.3708 82.416 55.6108 82.56C55.8028 82.672 55.9628 82.768 56.1548 82.768C56.4108 82.768 56.5868 82.592 56.7948 82.144L57.6428 82.656C57.2428 83.552 56.7948 84 56.1868 84C55.7548 84 55.4668 83.84 55.2268 83.696C55.0348 83.584 54.8748 83.488 54.6828 83.488C54.4268 83.488 54.2508 83.664 54.0428 84.112ZM55.4188 96.16C53.6908 96.16 52.7467 95.136 52.7467 93.344V87.456C52.7467 85.664 53.6908 84.64 55.4188 84.64C57.1468 84.64 58.0908 85.664 58.0908 87.456V93.344C58.0908 95.136 57.1468 96.16 55.4188 96.16ZM55.4188 94.56C55.9788 94.56 56.3307 94.256 56.3307 93.456V87.344C56.3307 86.544 55.9788 86.24 55.4188 86.24C54.8588 86.24 54.5068 86.544 54.5068 87.344V93.456C54.5068 94.256 54.8588 94.56 55.4188 94.56ZM59.281 96V84.8H64.081V86.4H61.041V89.36H63.457V90.96H61.041V94.4H64.081V96H59.281ZM67.4128 96.16C65.6848 96.16 64.8208 95.136 64.8208 93.344V92.704H66.4848V93.472C66.4848 94.272 66.8368 94.56 67.3968 94.56C67.9568 94.56 68.3088 94.272 68.3088 93.44C68.3088 92.512 67.9568 91.92 66.8048 90.912C65.3328 89.616 64.8528 88.704 64.8528 87.424C64.8528 85.664 65.7648 84.64 67.4768 84.64C69.1888 84.64 70.0368 85.664 70.0368 87.456V87.92H68.3728V87.344C68.3728 86.544 68.0528 86.24 67.4928 86.24C66.9328 86.24 66.6128 86.544 66.6128 87.312C66.6128 88.128 66.9808 88.72 68.1328 89.728C69.6048 91.024 70.0688 91.92 70.0688 93.312C70.0688 95.136 69.1408 96.16 67.4128 96.16ZM73.6404 96V84.8H78.4404V86.4H75.4004V89.36H77.8164V90.96H75.4004V94.4H78.4404V96H73.6404ZM82.0154 96V84.8H84.6234C86.4474 84.8 87.2314 85.648 87.2314 87.376V88.064C87.2314 89.216 86.8634 89.952 86.0794 90.272V90.304C86.9594 90.576 87.2474 91.408 87.2474 92.672V94.64C87.2474 95.184 87.2634 95.584 87.4394 96H85.6474C85.5514 95.712 85.4874 95.536 85.4874 94.624V92.576C85.4874 91.536 85.1834 91.2 84.3834 91.2H83.7754V96H82.0154ZM83.7754 89.6H84.4154C85.0714 89.6 85.4714 89.312 85.4714 88.416V87.552C85.4714 86.752 85.1994 86.4 84.5754 86.4H83.7754V89.6ZM88.4685 96V84.8H93.2685V86.4H90.2285V89.36H92.6445V90.96H90.2285V94.4H93.2685V96H88.4685ZM94.281 96V84.8H98.937V86.4H96.041V89.52H98.313V91.12H96.041V96H94.281ZM102.325 96.16C100.597 96.16 99.653 95.136 99.653 93.344V87.456C99.653 85.664 100.597 84.64 102.325 84.64C104.053 84.64 104.997 85.664 104.997 87.456V93.344C104.997 95.136 104.053 96.16 102.325 96.16ZM102.325 94.56C102.885 94.56 103.237 94.256 103.237 93.456V87.344C103.237 86.544 102.885 86.24 102.325 86.24C101.765 86.24 101.413 86.544 101.413 87.344V93.456C101.413 94.256 101.765 94.56 102.325 94.56ZM106.187 96V84.8H108.795C110.619 84.8 111.403 85.648 111.403 87.376V88.064C111.403 89.216 111.035 89.952 110.251 90.272V90.304C111.131 90.576 111.419 91.408 111.419 92.672V94.64C111.419 95.184 111.435 95.584 111.611 96H109.819C109.723 95.712 109.659 95.536 109.659 94.624V92.576C109.659 91.536 109.355 91.2 108.555 91.2H107.947V96H106.187ZM107.947 89.6H108.587C109.243 89.6 109.643 89.312 109.643 88.416V87.552C109.643 86.752 109.371 86.4 108.747 86.4H107.947V89.6ZM112.64 96V84.8H115.152L116.272 92.816H116.304L117.424 84.8H119.936V96H118.272V87.52H118.24L116.96 96H115.488L114.208 87.52H114.176V96H112.64ZM120.786 96L122.61 84.8H124.994L126.818 96H125.058L124.738 93.776V93.808H122.738L122.418 96H120.786ZM122.946 92.288H124.53L123.746 86.752H123.714L122.946 92.288ZM129.913 96.16C128.185 96.16 127.321 95.136 127.321 93.344V92.704H128.985V93.472C128.985 94.272 129.337 94.56 129.897 94.56C130.457 94.56 130.809 94.272 130.809 93.44C130.809 92.512 130.457 91.92 129.305 90.912C127.833 89.616 127.353 88.704 127.353 87.424C127.353 85.664 128.265 84.64 129.977 84.64C131.689 84.64 132.537 85.664 132.537 87.456V87.92H130.873V87.344C130.873 86.544 130.553 86.24 129.993 86.24C129.433 86.24 129.113 86.544 129.113 87.312C129.113 88.128 129.481 88.72 130.633 89.728C132.105 91.024 132.569 91.92 132.569 93.312C132.569 95.136 131.641 96.16 129.913 96.16ZM136.14 96V84.8H137.9V94.4H140.796V96H136.14ZM141.766 96V86.4H139.926V84.8H145.366V86.4H143.526V96H141.766ZM146.219 96V84.8H148.907C150.667 84.8 151.531 85.776 151.531 87.568V93.232C151.531 95.024 150.667 96 148.907 96H146.219ZM147.979 94.4H148.875C149.435 94.4 149.771 94.112 149.771 93.312V87.488C149.771 86.688 149.435 86.4 148.875 86.4H147.979V94.4ZM152.223 96L154.047 84.8H156.431L158.255 96H156.495L156.175 93.776V93.808H154.175L153.855 96H152.223ZM154.383 92.288H155.967L155.183 86.752H155.151L154.383 92.288Z" fill="#333333"/>
</svg>
