<svg width="122" height="82" viewBox="0 0 122 82" fill="none" xmlns="http://www.w3.org/2000/svg">
<path d="M5.924 24.224C5.924 23.936 6.44 23.684 7.472 23.468C8.48 23.228 9.272 23.108 9.848 23.108C10.4 23.108 10.892 23.564 11.324 24.476C11.78 25.46 12.248 26.624 12.728 27.968C13.232 29.312 13.472 29.984 13.448 29.984C14.24 28.328 15.176 27.02 16.256 26.06C17.336 25.1 18.5 24.62 19.748 24.62C20.612 24.62 21.38 25.028 22.052 25.844C22.748 26.66 23.312 27.68 23.744 28.904C24.56 31.256 25.208 34.688 25.688 39.2L26.192 45.248C26.24 45.248 26.6 43.82 27.272 40.964C27.968 38.108 28.544 35.792 29 34.016C30.128 29.6 30.8 27.248 31.016 26.96C31.112 26.744 31.592 26.492 32.456 26.204C33.32 25.916 33.944 25.772 34.328 25.772C34.424 25.772 34.472 25.904 34.472 26.168L34.436 26.672C34.412 27.008 34.4 27.56 34.4 28.328C34.4 29.072 34.424 29.9 34.472 30.812C34.52 31.7 34.628 32.876 34.796 34.34C34.988 35.804 35.228 37.196 35.516 38.516C35.828 39.836 36.26 41.204 36.812 42.62C37.388 44.012 38.048 45.224 38.792 46.256C39.56 47.264 40.52 48.104 41.672 48.776C42.824 49.424 44.108 49.748 45.524 49.748C46.22 49.748 46.712 49.688 47 49.568C47.288 49.448 47.516 49.34 47.684 49.244C47.876 49.148 47.996 49.088 48.044 49.064C48.236 49.064 48.332 49.184 48.332 49.424C48.332 49.832 47.612 50.3 46.172 50.828C44.732 51.38 43.52 51.656 42.536 51.656C40.136 51.656 38.048 50.552 36.272 48.344C34.52 46.112 33.236 43.328 32.42 39.992C31.604 36.632 31.196 32.984 31.196 29.048H31.016L26.372 47.66C26.252 49.172 26.108 50 25.94 50.144C24.884 50.864 24.2 51.224 23.888 51.224C23.6 51.224 23.444 50.936 23.42 50.36C23.348 47.84 23.096 45.008 22.664 41.864C22.256 38.72 21.836 36.176 21.404 34.232C20.972 32.288 20.396 30.632 19.676 29.264C18.956 27.872 18.2 27.176 17.408 27.176C16.64 27.176 15.932 27.512 15.284 28.184C14.66 28.856 14.168 29.792 13.808 30.992C14.192 32.864 14.648 35.792 15.176 39.776C15.704 43.736 15.968 46.952 15.968 49.424C15.968 50.12 15.752 50.66 15.32 51.044C14.888 51.452 14.468 51.656 14.06 51.656C13.652 51.656 13.244 51.2 12.836 50.288C12.428 49.4 12.08 48.092 11.792 46.364C11.528 44.636 11.396 43.112 11.396 41.792C11.396 40.472 11.444 38.996 11.54 37.364C11.06 33.956 10.328 30.944 9.344 28.328C9.008 27.368 8.576 26.528 8.048 25.808C7.496 25.064 6.944 24.668 6.392 24.62C6.08 24.572 5.924 24.44 5.924 24.224Z" fill="#333333"/>
<path d="M10.8281 19.459C12.6914 19.459 14.2617 19.5996 15.5391 19.8809C16.8164 20.1621 17.8477 20.5605 18.6328 21.0762C19.418 21.5918 19.9805 22.2188 20.3203 22.957C20.6602 23.6836 20.8301 24.4922 20.8301 25.3828C20.8301 26.1562 20.707 26.8887 20.4609 27.5801C20.2266 28.2715 19.8691 28.8984 19.3887 29.4609C18.9082 30.0234 18.3047 30.5098 17.5781 30.9199C16.8633 31.3184 16.0195 31.623 15.0469 31.834V31.9043C15.8555 32.0918 16.5176 32.3672 17.0332 32.7305C17.5605 33.0938 17.9824 33.5391 18.2988 34.0664C18.627 34.5938 18.8789 35.1973 19.0547 35.877C19.2422 36.5449 19.4062 37.2832 19.5469 38.0918C19.6875 38.9238 19.8105 39.6855 19.916 40.377C20.0332 41.0566 20.1855 41.6484 20.373 42.1523C20.5605 42.6445 20.8125 43.0312 21.1289 43.3125C21.457 43.582 21.9082 43.7168 22.4824 43.7168C22.5879 43.7168 22.7344 43.7109 22.9219 43.6992C23.1211 43.6875 23.3379 43.6641 23.5723 43.6289V44.9824C23.373 45.0293 23.1562 45.0703 22.9219 45.1055C22.6875 45.1406 22.4473 45.1641 22.2012 45.1758C21.9668 45.1992 21.7324 45.2109 21.498 45.2109C21.2754 45.2227 21.0762 45.2285 20.9004 45.2285C19.8809 45.2285 19.0781 45.123 18.4922 44.9121C17.918 44.6895 17.4727 44.3496 17.1562 43.8926C16.8516 43.4355 16.6348 42.8613 16.5059 42.1699C16.377 41.4785 16.2539 40.6582 16.1367 39.709C15.9609 38.3262 15.7852 37.166 15.6094 36.2285C15.4336 35.291 15.1875 34.541 14.8711 33.9785C14.5547 33.4043 14.127 33 13.5879 32.7656C13.0488 32.5195 12.3164 32.3965 11.3906 32.3965H8.08594V43.5938H11.7773V45H1.14258V43.5938H4.6582V20.8652H1.14258V19.459H10.8281ZM8.08594 30.9902H10.4238C11.6895 30.9902 12.7441 30.8848 13.5879 30.6738C14.4434 30.4629 15.1289 30.1348 15.6445 29.6895C16.1719 29.2324 16.541 28.6582 16.752 27.9668C16.9746 27.2637 17.0859 26.4199 17.0859 25.4355C17.0859 24.6152 16.998 23.918 16.8223 23.3438C16.6465 22.7578 16.3184 22.2832 15.8379 21.9199C15.3691 21.5566 14.7129 21.293 13.8691 21.1289C13.0371 20.9531 11.9531 20.8652 10.6172 20.8652H8.08594V30.9902Z" fill="#333333"/>
<rect width="122" height="18" transform="translate(0 53)" fill="#333333"/>
<path d="M4.352 66.12C3.08 66.12 2.408 65.352 2.408 64.056V59.544C2.408 58.248 3.08 57.48 4.352 57.48C5.624 57.48 6.296 58.248 6.296 59.544V60.432H5.048V59.46C5.048 58.908 4.784 58.68 4.388 58.68C3.992 58.68 3.728 58.908 3.728 59.46V64.152C3.728 64.704 3.992 64.92 4.388 64.92C4.784 64.92 5.048 64.704 5.048 64.152V62.868H6.296V64.056C6.296 65.352 5.624 66.12 4.352 66.12ZM9.01719 66.12C7.72119 66.12 7.01319 65.352 7.01319 64.008V59.592C7.01319 58.248 7.72119 57.48 9.01719 57.48C10.3132 57.48 11.0212 58.248 11.0212 59.592V64.008C11.0212 65.352 10.3132 66.12 9.01719 66.12ZM9.01719 64.92C9.43719 64.92 9.70119 64.692 9.70119 64.092V59.508C9.70119 58.908 9.43719 58.68 9.01719 58.68C8.59719 58.68 8.33319 58.908 8.33319 59.508V64.092C8.33319 64.692 8.59719 64.92 9.01719 64.92ZM11.9139 66V57.6H13.5699L14.8539 62.628H14.8779V57.6H16.0539V66H14.6979L13.1139 59.868H13.0899V66H11.9139ZM18.751 66.12C17.455 66.12 16.807 65.352 16.807 64.008V63.528H18.055V64.104C18.055 64.704 18.319 64.92 18.739 64.92C19.159 64.92 19.423 64.704 19.423 64.08C19.423 63.384 19.159 62.94 18.295 62.184C17.191 61.212 16.831 60.528 16.831 59.568C16.831 58.248 17.515 57.48 18.799 57.48C20.083 57.48 20.719 58.248 20.719 59.592V59.94H19.471V59.508C19.471 58.908 19.231 58.68 18.811 58.68C18.391 58.68 18.151 58.908 18.151 59.484C18.151 60.096 18.427 60.54 19.291 61.296C20.395 62.268 20.743 62.94 20.743 63.984C20.743 65.352 20.047 66.12 18.751 66.12ZM22.5318 66V58.8H21.1518V57.6H25.2318V58.8H23.8518V66H22.5318ZM25.8709 66V57.6H27.8269C29.1949 57.6 29.7829 58.236 29.7829 59.532V60.048C29.7829 60.912 29.5069 61.464 28.9189 61.704V61.728C29.5789 61.932 29.7949 62.556 29.7949 63.504V64.98C29.7949 65.388 29.8069 65.688 29.9389 66H28.5949C28.5229 65.784 28.4749 65.652 28.4749 64.968V63.432C28.4749 62.652 28.2469 62.4 27.6469 62.4H27.1909V66H25.8709ZM27.1909 61.2H27.6709C28.1629 61.2 28.4629 60.984 28.4629 60.312V59.664C28.4629 59.064 28.2589 58.8 27.7909 58.8H27.1909V61.2ZM32.6308 66.12C31.3348 66.12 30.6628 65.352 30.6628 64.008V57.6H31.9827V64.104C31.9827 64.704 32.2348 64.92 32.6548 64.92C33.0748 64.92 33.3268 64.704 33.3268 64.104V57.6H34.5988V64.008C34.5988 65.352 33.9268 66.12 32.6308 66.12ZM39.3429 60.432H38.0949V59.46C38.0949 58.908 37.8309 58.68 37.4349 58.68C37.0389 58.68 36.7749 58.908 36.7749 59.46V64.152C36.7749 64.704 37.0389 64.92 37.4349 64.92C37.8309 64.92 38.0949 64.704 38.0949 64.152V62.868H39.3429V64.056C39.3429 65.244 38.7789 65.988 37.7109 66.108V66.468C38.2389 66.468 38.5389 66.612 38.5389 67.032C38.5389 67.68 38.0349 67.764 37.3149 67.764C36.6549 67.764 36.1629 67.62 36.1629 67.068V66.948H37.0509V67.044C37.0509 67.224 37.1829 67.284 37.3149 67.284C37.5309 67.284 37.6269 67.2 37.6269 66.996C37.6269 66.768 37.4829 66.684 37.1829 66.684H37.1229V66.108C36.0309 66 35.4549 65.256 35.4549 64.056V59.544C35.4549 58.248 36.1269 57.48 37.3989 57.48C38.6709 57.48 39.3429 58.248 39.3429 59.544V60.432ZM41.0321 57.084L40.3961 56.7C40.6961 56.028 41.0321 55.692 41.4881 55.692C41.8121 55.692 42.0281 55.812 42.2081 55.92C42.3521 56.004 42.4721 56.076 42.6161 56.076C42.8081 56.076 42.9401 55.944 43.0961 55.608L43.7321 55.992C43.4321 56.664 43.0961 57 42.6401 57C42.3161 57 42.1001 56.88 41.9201 56.772C41.7761 56.688 41.6561 56.616 41.5121 56.616C41.3201 56.616 41.1881 56.748 41.0321 57.084ZM42.0641 66.12C40.7681 66.12 40.0601 65.352 40.0601 64.008V59.592C40.0601 58.248 40.7681 57.48 42.0641 57.48C43.3601 57.48 44.0681 58.248 44.0681 59.592V64.008C44.0681 65.352 43.3601 66.12 42.0641 66.12ZM42.0641 64.92C42.4841 64.92 42.7481 64.692 42.7481 64.092V59.508C42.7481 58.908 42.4841 58.68 42.0641 58.68C41.6441 58.68 41.3801 58.908 41.3801 59.508V64.092C41.3801 64.692 41.6441 64.92 42.0641 64.92ZM44.9608 66V57.6H48.5608V58.8H46.2808V61.02H48.0928V62.22H46.2808V64.8H48.5608V66H44.9608ZM51.0596 66.12C49.7636 66.12 49.1156 65.352 49.1156 64.008V63.528H50.3636V64.104C50.3636 64.704 50.6276 64.92 51.0476 64.92C51.4676 64.92 51.7316 64.704 51.7316 64.08C51.7316 63.384 51.4676 62.94 50.6036 62.184C49.4996 61.212 49.1396 60.528 49.1396 59.568C49.1396 58.248 49.8236 57.48 51.1076 57.48C52.3916 57.48 53.0276 58.248 53.0276 59.592V59.94H51.7796V59.508C51.7796 58.908 51.5396 58.68 51.1196 58.68C50.6996 58.68 50.4596 58.908 50.4596 59.484C50.4596 60.096 50.7356 60.54 51.5996 61.296C52.7036 62.268 53.0516 62.94 53.0516 63.984C53.0516 65.352 52.3556 66.12 51.0596 66.12ZM55.7303 66V57.6H59.3303V58.8H57.0503V61.02H58.8623V62.22H57.0503V64.8H59.3303V66H55.7303ZM62.0115 66V57.6H63.9675C65.3355 57.6 65.9235 58.236 65.9235 59.532V60.048C65.9235 60.912 65.6475 61.464 65.0595 61.704V61.728C65.7195 61.932 65.9355 62.556 65.9355 63.504V64.98C65.9355 65.388 65.9475 65.688 66.0795 66H64.7355C64.6635 65.784 64.6155 65.652 64.6155 64.968V63.432C64.6155 62.652 64.3875 62.4 63.7875 62.4H63.3315V66H62.0115ZM63.3315 61.2H63.8115C64.3035 61.2 64.6035 60.984 64.6035 60.312V59.664C64.6035 59.064 64.3995 58.8 63.9315 58.8H63.3315V61.2ZM66.8514 66V57.6H70.4514V58.8H68.1714V61.02H69.9834V62.22H68.1714V64.8H70.4514V66H66.8514ZM71.2108 66V57.6H74.7028V58.8H72.5308V61.14H74.2348V62.34H72.5308V66H71.2108ZM77.2438 66.12C75.9478 66.12 75.2397 65.352 75.2397 64.008V59.592C75.2397 58.248 75.9478 57.48 77.2438 57.48C78.5398 57.48 79.2478 58.248 79.2478 59.592V64.008C79.2478 65.352 78.5398 66.12 77.2438 66.12ZM77.2438 64.92C77.6638 64.92 77.9277 64.692 77.9277 64.092V59.508C77.9277 58.908 77.6638 58.68 77.2438 58.68C76.8238 58.68 76.5598 58.908 76.5598 59.508V64.092C76.5598 64.692 76.8238 64.92 77.2438 64.92ZM80.1404 66V57.6H82.0964C83.4644 57.6 84.0524 58.236 84.0524 59.532V60.048C84.0524 60.912 83.7764 61.464 83.1884 61.704V61.728C83.8484 61.932 84.0644 62.556 84.0644 63.504V64.98C84.0644 65.388 84.0764 65.688 84.2084 66H82.8644C82.7924 65.784 82.7444 65.652 82.7444 64.968V63.432C82.7444 62.652 82.5164 62.4 81.9164 62.4H81.4604V66H80.1404ZM81.4604 61.2H81.9404C82.4324 61.2 82.7324 60.984 82.7324 60.312V59.664C82.7324 59.064 82.5284 58.8 82.0604 58.8H81.4604V61.2ZM84.9803 66V57.6H86.8643L87.7043 63.612H87.7283L88.5683 57.6H90.4523V66H89.2043V59.64H89.1803L88.2203 66H87.1163L86.1563 59.64H86.1323V66H84.9803ZM91.0893 66L92.4573 57.6H94.2453L95.6133 66H94.2933L94.0533 64.332V64.356H92.5533L92.3133 66H91.0893ZM92.7093 63.216H93.8973L93.3093 59.064H93.2853L92.7093 63.216ZM97.9346 66.12C96.6386 66.12 95.9906 65.352 95.9906 64.008V63.528H97.2386V64.104C97.2386 64.704 97.5026 64.92 97.9226 64.92C98.3426 64.92 98.6066 64.704 98.6066 64.08C98.6066 63.384 98.3426 62.94 97.4786 62.184C96.3746 61.212 96.0146 60.528 96.0146 59.568C96.0146 58.248 96.6986 57.48 97.9826 57.48C99.2666 57.48 99.9026 58.248 99.9026 59.592V59.94H98.6546V59.508C98.6546 58.908 98.4146 58.68 97.9946 58.68C97.5746 58.68 97.3346 58.908 97.3346 59.484C97.3346 60.096 97.6106 60.54 98.4746 61.296C99.5786 62.268 99.9266 62.94 99.9266 63.984C99.9266 65.352 99.2306 66.12 97.9346 66.12ZM102.605 66V57.6H103.925V64.8H106.097V66H102.605ZM106.825 66V58.8H105.445V57.6H109.525V58.8H108.145V66H106.825ZM110.164 66V57.6H112.18C113.5 57.6 114.148 58.332 114.148 59.676V63.924C114.148 65.268 113.5 66 112.18 66H110.164ZM111.484 64.8H112.156C112.576 64.8 112.828 64.584 112.828 63.984V59.616C112.828 59.016 112.576 58.8 112.156 58.8H111.484V64.8ZM114.667 66L116.035 57.6H117.823L119.191 66H117.871L117.631 64.332V64.356H116.131L115.891 66H114.667ZM116.287 63.216H117.475L116.887 59.064H116.863L116.287 63.216Z" fill="white"/>
</svg>
