<svg width="239" height="103" viewBox="0 0 239 103" fill="none" xmlns="http://www.w3.org/2000/svg">
<path d="M10.232 27.632C10.232 27.248 10.92 26.912 12.296 26.624C13.64 26.304 14.696 26.144 15.464 26.144C16.2 26.144 16.856 26.752 17.432 27.968C18.04 29.28 18.664 30.832 19.304 32.624C19.976 34.416 20.296 35.312 20.264 35.312C21.32 33.104 22.568 31.36 24.008 30.08C25.448 28.8 27 28.16 28.664 28.16C29.816 28.16 30.84 28.704 31.736 29.792C32.664 30.88 33.416 32.24 33.992 33.872C35.08 37.008 35.944 41.584 36.584 47.6L37.256 55.664C37.32 55.664 37.8 53.76 38.696 49.952C39.624 46.144 40.392 43.056 41 40.688C42.504 34.8 43.4 31.664 43.688 31.28C43.816 30.992 44.456 30.656 45.608 30.272C46.76 29.888 47.592 29.696 48.104 29.696C48.232 29.696 48.296 29.872 48.296 30.224L48.248 30.896C48.216 31.344 48.2 32.08 48.2 33.104C48.2 34.096 48.232 35.2 48.296 36.416C48.36 37.6 48.504 39.168 48.728 41.12C48.984 43.072 49.304 44.928 49.688 46.688C50.104 48.448 50.68 50.272 51.416 52.16C52.184 54.016 53.064 55.632 54.056 57.008C55.08 58.352 56.36 59.472 57.896 60.368C59.432 61.232 61.144 61.664 63.032 61.664C63.96 61.664 64.616 61.584 65 61.424C65.384 61.264 65.688 61.12 65.912 60.992C66.168 60.864 66.328 60.784 66.392 60.752C66.648 60.752 66.776 60.912 66.776 61.232C66.776 61.776 65.816 62.4 63.896 63.104C61.976 63.84 60.36 64.208 59.048 64.208C55.848 64.208 53.064 62.736 50.696 59.792C48.36 56.816 46.648 53.104 45.56 48.656C44.472 44.176 43.928 39.312 43.928 34.064H43.688L37.496 58.88C37.336 60.896 37.144 62 36.92 62.192C35.512 63.152 34.6 63.632 34.184 63.632C33.8 63.632 33.592 63.248 33.56 62.48C33.464 59.12 33.128 55.344 32.552 51.152C32.008 46.96 31.448 43.568 30.872 40.976C30.296 38.384 29.528 36.176 28.568 34.352C27.608 32.496 26.6 31.568 25.544 31.568C24.52 31.568 23.576 32.016 22.712 32.912C21.88 33.808 21.224 35.056 20.744 36.656C21.256 39.152 21.864 43.056 22.568 48.368C23.272 53.648 23.624 57.936 23.624 61.232C23.624 62.16 23.336 62.88 22.76 63.392C22.184 63.936 21.624 64.208 21.08 64.208C20.536 64.208 19.992 63.6 19.448 62.384C18.904 61.2 18.44 59.456 18.056 57.152C17.704 54.848 17.528 52.816 17.528 51.056C17.528 49.296 17.592 47.328 17.72 45.152C17.08 40.608 16.104 36.592 14.792 33.104C14.344 31.824 13.768 30.704 13.064 29.744C12.328 28.752 11.592 28.224 10.856 28.16C10.44 28.096 10.232 27.92 10.232 27.632Z" fill="#333333"/>
<path d="M14.4375 19.9453C16.9219 19.9453 19.0156 20.1328 20.7188 20.5078C22.4219 20.8828 23.7969 21.4141 24.8438 22.1016C25.8906 22.7891 26.6406 23.625 27.0938 24.6094C27.5469 25.5781 27.7734 26.6562 27.7734 27.8438C27.7734 28.875 27.6094 29.8516 27.2812 30.7734C26.9688 31.6953 26.4922 32.5312 25.8516 33.2812C25.2109 34.0312 24.4062 34.6797 23.4375 35.2266C22.4844 35.7578 21.3594 36.1641 20.0625 36.4453V36.5391C21.1406 36.7891 22.0234 37.1562 22.7109 37.6406C23.4141 38.125 23.9766 38.7188 24.3984 39.4219C24.8359 40.125 25.1719 40.9297 25.4062 41.8359C25.6562 42.7266 25.875 43.7109 26.0625 44.7891C26.25 45.8984 26.4141 46.9141 26.5547 47.8359C26.7109 48.7422 26.9141 49.5312 27.1641 50.2031C27.4141 50.8594 27.75 51.375 28.1719 51.75C28.6094 52.1094 29.2109 52.2891 29.9766 52.2891C30.1172 52.2891 30.3125 52.2812 30.5625 52.2656C30.8281 52.25 31.1172 52.2188 31.4297 52.1719V53.9766C31.1641 54.0391 30.875 54.0938 30.5625 54.1406C30.25 54.1875 29.9297 54.2188 29.6016 54.2344C29.2891 54.2656 28.9766 54.2812 28.6641 54.2812C28.3672 54.2969 28.1016 54.3047 27.8672 54.3047C26.5078 54.3047 25.4375 54.1641 24.6562 53.8828C23.8906 53.5859 23.2969 53.1328 22.875 52.5234C22.4688 51.9141 22.1797 51.1484 22.0078 50.2266C21.8359 49.3047 21.6719 48.2109 21.5156 46.9453C21.2812 45.1016 21.0469 43.5547 20.8125 42.3047C20.5781 41.0547 20.25 40.0547 19.8281 39.3047C19.4062 38.5391 18.8359 38 18.1172 37.6875C17.3984 37.3594 16.4219 37.1953 15.1875 37.1953H10.7812V52.125H15.7031V54H1.52344V52.125H6.21094V21.8203H1.52344V19.9453H14.4375ZM10.7812 35.3203H13.8984C15.5859 35.3203 16.9922 35.1797 18.1172 34.8984C19.2578 34.6172 20.1719 34.1797 20.8594 33.5859C21.5625 32.9766 22.0547 32.2109 22.3359 31.2891C22.6328 30.3516 22.7812 29.2266 22.7812 27.9141C22.7812 26.8203 22.6641 25.8906 22.4297 25.125C22.1953 24.3438 21.7578 23.7109 21.1172 23.2266C20.4922 22.7422 19.6172 22.3906 18.4922 22.1719C17.3828 21.9375 15.9375 21.8203 14.1562 21.8203H10.7812V35.3203Z" fill="#333333"/>
<rect width="239" height="33" transform="translate(0 70)" fill="#333333"/>
<path d="M6.704 94.24C4.16 94.24 2.816 92.704 2.816 90.112V81.088C2.816 78.496 4.16 76.96 6.704 76.96C9.248 76.96 10.592 78.496 10.592 81.088V82.864H8.096V80.92C8.096 79.816 7.568 79.36 6.776 79.36C5.984 79.36 5.456 79.816 5.456 80.92V90.304C5.456 91.408 5.984 91.84 6.776 91.84C7.568 91.84 8.096 91.408 8.096 90.304V87.736H10.592V90.112C10.592 92.704 9.248 94.24 6.704 94.24ZM16.0344 94.24C13.4424 94.24 12.0264 92.704 12.0264 90.016V81.184C12.0264 78.496 13.4424 76.96 16.0344 76.96C18.6264 76.96 20.0424 78.496 20.0424 81.184V90.016C20.0424 92.704 18.6264 94.24 16.0344 94.24ZM16.0344 91.84C16.8744 91.84 17.4024 91.384 17.4024 90.184V81.016C17.4024 79.816 16.8744 79.36 16.0344 79.36C15.1944 79.36 14.6664 79.816 14.6664 81.016V90.184C14.6664 91.384 15.1944 91.84 16.0344 91.84ZM21.8278 94V77.2H25.1398L27.7078 87.256H27.7558V77.2H30.1078V94H27.3958L24.2278 81.736H24.1798V94H21.8278ZM35.5019 94.24C32.9099 94.24 31.6139 92.704 31.6139 90.016V89.056H34.1099V90.208C34.1099 91.408 34.6379 91.84 35.4779 91.84C36.3179 91.84 36.8459 91.408 36.8459 90.16C36.8459 88.768 36.3179 87.88 34.5899 86.368C32.3819 84.424 31.6619 83.056 31.6619 81.136C31.6619 78.496 33.0299 76.96 35.5979 76.96C38.1659 76.96 39.4379 78.496 39.4379 81.184V81.88H36.9419V81.016C36.9419 79.816 36.4619 79.36 35.6219 79.36C34.7819 79.36 34.3019 79.816 34.3019 80.968C34.3019 82.192 34.8539 83.08 36.5819 84.592C38.7899 86.536 39.4859 87.88 39.4859 89.968C39.4859 92.704 38.0939 94.24 35.5019 94.24ZM43.0636 94V79.6H40.3036V77.2H48.4636V79.6H45.7036V94H43.0636ZM49.7418 94V77.2H53.6538C56.3898 77.2 57.5658 78.472 57.5658 81.064V82.096C57.5658 83.824 57.0138 84.928 55.8378 85.408V85.456C57.1578 85.864 57.5898 87.112 57.5898 89.008V91.96C57.5898 92.776 57.6138 93.376 57.8778 94H55.1898C55.0458 93.568 54.9498 93.304 54.9498 91.936V88.864C54.9498 87.304 54.4938 86.8 53.2938 86.8H52.3818V94H49.7418ZM52.3818 84.4H53.3418C54.3258 84.4 54.9258 83.968 54.9258 82.624V81.328C54.9258 80.128 54.5178 79.6 53.5818 79.6H52.3818V84.4ZM63.2615 94.24C60.6695 94.24 59.3255 92.704 59.3255 90.016V77.2H61.9655V90.208C61.9655 91.408 62.4695 91.84 63.3095 91.84C64.1495 91.84 64.6535 91.408 64.6535 90.208V77.2H67.1975V90.016C67.1975 92.704 65.8535 94.24 63.2615 94.24ZM76.6858 82.864H74.1898V80.92C74.1898 79.816 73.6618 79.36 72.8698 79.36C72.0778 79.36 71.5498 79.816 71.5498 80.92V90.304C71.5498 91.408 72.0778 91.84 72.8698 91.84C73.6618 91.84 74.1898 91.408 74.1898 90.304V87.736H76.6858V90.112C76.6858 92.488 75.5578 93.976 73.4218 94.216V94.936C74.4778 94.936 75.0778 95.224 75.0778 96.064C75.0778 97.36 74.0698 97.528 72.6298 97.528C71.3098 97.528 70.3258 97.24 70.3258 96.136V95.896H72.1018V96.088C72.1018 96.448 72.3658 96.568 72.6298 96.568C73.0618 96.568 73.2538 96.4 73.2538 95.992C73.2538 95.536 72.9658 95.368 72.3658 95.368H72.2458V94.216C70.0618 94 68.9098 92.512 68.9098 90.112V81.088C68.9098 78.496 70.2538 76.96 72.7978 76.96C75.3418 76.96 76.6858 78.496 76.6858 81.088V82.864ZM80.0641 76.168L78.7921 75.4C79.3921 74.056 80.0641 73.384 80.9761 73.384C81.6241 73.384 82.0561 73.624 82.4161 73.84C82.7041 74.008 82.9441 74.152 83.2321 74.152C83.6161 74.152 83.8801 73.888 84.1921 73.216L85.4641 73.984C84.8641 75.328 84.1921 76 83.2801 76C82.6321 76 82.2001 75.76 81.8401 75.544C81.5521 75.376 81.3121 75.232 81.0241 75.232C80.6401 75.232 80.3761 75.496 80.0641 76.168ZM82.1281 94.24C79.5361 94.24 78.1201 92.704 78.1201 90.016V81.184C78.1201 78.496 79.5361 76.96 82.1281 76.96C84.7201 76.96 86.1361 78.496 86.1361 81.184V90.016C86.1361 92.704 84.7201 94.24 82.1281 94.24ZM82.1281 91.84C82.9681 91.84 83.4961 91.384 83.4961 90.184V81.016C83.4961 79.816 82.9681 79.36 82.1281 79.36C81.2881 79.36 80.7601 79.816 80.7601 81.016V90.184C80.7601 91.384 81.2881 91.84 82.1281 91.84ZM87.9215 94V77.2H95.1215V79.6H90.5615V84.04H94.1855V86.44H90.5615V91.6H95.1215V94H87.9215ZM100.119 94.24C97.5271 94.24 96.2311 92.704 96.2311 90.016V89.056H98.7271V90.208C98.7271 91.408 99.2551 91.84 100.095 91.84C100.935 91.84 101.463 91.408 101.463 90.16C101.463 88.768 100.935 87.88 99.2071 86.368C96.9991 84.424 96.2791 83.056 96.2791 81.136C96.2791 78.496 97.6471 76.96 100.215 76.96C102.783 76.96 104.055 78.496 104.055 81.184V81.88H101.559V81.016C101.559 79.816 101.079 79.36 100.239 79.36C99.3991 79.36 98.9191 79.816 98.9191 80.968C98.9191 82.192 99.4711 83.08 101.199 84.592C103.407 86.536 104.103 87.88 104.103 89.968C104.103 92.704 102.711 94.24 100.119 94.24ZM109.461 94V77.2H116.661V79.6H112.101V84.04H115.725V86.44H112.101V91.6H116.661V94H109.461ZM122.023 94V77.2H125.935C128.671 77.2 129.847 78.472 129.847 81.064V82.096C129.847 83.824 129.295 84.928 128.119 85.408V85.456C129.439 85.864 129.871 87.112 129.871 89.008V91.96C129.871 92.776 129.895 93.376 130.159 94H127.471C127.327 93.568 127.231 93.304 127.231 91.936V88.864C127.231 87.304 126.775 86.8 125.575 86.8H124.663V94H122.023ZM124.663 84.4H125.623C126.607 84.4 127.207 83.968 127.207 82.624V81.328C127.207 80.128 126.799 79.6 125.863 79.6H124.663V84.4ZM131.703 94V77.2H138.903V79.6H134.343V84.04H137.967V86.44H134.343V91.6H138.903V94H131.703ZM140.422 94V77.2H147.406V79.6H143.062V84.28H146.47V86.68H143.062V94H140.422ZM152.488 94.24C149.896 94.24 148.479 92.704 148.479 90.016V81.184C148.479 78.496 149.896 76.96 152.488 76.96C155.08 76.96 156.496 78.496 156.496 81.184V90.016C156.496 92.704 155.08 94.24 152.488 94.24ZM152.488 91.84C153.328 91.84 153.855 91.384 153.855 90.184V81.016C153.855 79.816 153.328 79.36 152.488 79.36C151.648 79.36 151.12 79.816 151.12 81.016V90.184C151.12 91.384 151.648 91.84 152.488 91.84ZM158.281 94V77.2H162.193C164.929 77.2 166.105 78.472 166.105 81.064V82.096C166.105 83.824 165.553 84.928 164.377 85.408V85.456C165.697 85.864 166.129 87.112 166.129 89.008V91.96C166.129 92.776 166.153 93.376 166.417 94H163.729C163.585 93.568 163.489 93.304 163.489 91.936V88.864C163.489 87.304 163.033 86.8 161.833 86.8H160.921V94H158.281ZM160.921 84.4H161.881C162.865 84.4 163.465 83.968 163.465 82.624V81.328C163.465 80.128 163.057 79.6 162.121 79.6H160.921V84.4ZM167.961 94V77.2H171.729L173.409 89.224H173.457L175.137 77.2H178.905V94H176.409V81.28H176.361L174.441 94H172.233L170.313 81.28H170.265V94H167.961ZM180.179 94L182.915 77.2H186.491L189.227 94H186.587L186.107 90.664V90.712H183.107L182.627 94H180.179ZM183.419 88.432H185.795L184.619 80.128H184.571L183.419 88.432ZM193.869 94.24C191.277 94.24 189.981 92.704 189.981 90.016V89.056H192.477V90.208C192.477 91.408 193.005 91.84 193.845 91.84C194.685 91.84 195.213 91.408 195.213 90.16C195.213 88.768 194.685 87.88 192.957 86.368C190.749 84.424 190.029 83.056 190.029 81.136C190.029 78.496 191.397 76.96 193.965 76.96C196.533 76.96 197.805 78.496 197.805 81.184V81.88H195.309V81.016C195.309 79.816 194.829 79.36 193.989 79.36C193.149 79.36 192.669 79.816 192.669 80.968C192.669 82.192 193.221 83.08 194.949 84.592C197.157 86.536 197.853 87.88 197.853 89.968C197.853 92.704 196.461 94.24 193.869 94.24ZM203.211 94V77.2H205.851V91.6H210.195V94H203.211ZM211.65 94V79.6H208.89V77.2H217.05V79.6H214.29V94H211.65ZM218.328 94V77.2H222.36C225 77.2 226.296 78.664 226.296 81.352V89.848C226.296 92.536 225 94 222.36 94H218.328ZM220.968 91.6H222.312C223.152 91.6 223.656 91.168 223.656 89.968V81.232C223.656 80.032 223.152 79.6 222.312 79.6H220.968V91.6ZM227.335 94L230.071 77.2H233.647L236.383 94H233.743L233.263 90.664V90.712H230.263L229.783 94H227.335ZM230.575 88.432H232.951L231.775 80.128H231.727L230.575 88.432Z" fill="white"/>
</svg>
